<svg width="155" height="282" viewBox="0 0 155 282" fill="none" xmlns="http://www.w3.org/2000/svg">
<path d="M115.198 80.1708L115.765 81.6804L117.005 82.6779C129.436 92.5712 144.16 110.417 148.393 131.551C152.519 152.093 146.991 176.867 116.897 201.964L115.711 202.961L115.171 204.417L111.234 215.065H43.4151L39.4781 204.417L38.9118 202.907L37.6713 201.91C25.3479 192.017 10.7594 174.171 6.55269 153.036C2.45387 132.468 7.95491 107.667 37.7522 82.597L38.9118 81.6265L39.4511 80.1978L43.3611 69.7114H111.234L115.144 80.1978L115.198 80.1708Z" fill="black" stroke="#9F7550" stroke-width="4"/>
<path d="M77.5001 151.257C82.4147 151.257 86.3988 147.274 86.3988 142.361C86.3988 137.448 82.4147 133.465 77.5001 133.465C72.5854 133.465 68.6013 137.448 68.6013 142.361C68.6013 147.274 72.5854 151.257 77.5001 151.257Z" fill="#9F7550"/>
<path d="M36.6468 130.473V139.693H36.1883C35.703 136.161 34.894 133.735 33.8153 132.414C32.9255 131.309 31.6311 130.77 29.9053 130.77C29.4738 130.77 29.2311 130.77 29.2042 130.824C29.1233 130.878 29.0693 131.174 29.0693 131.659V149.182C29.0693 149.802 29.1233 150.206 29.2042 150.395C29.2581 150.476 29.3929 150.583 29.6626 150.664C29.9323 150.772 30.4176 150.853 31.1457 150.907C31.8738 150.961 32.8715 151.015 34.112 151.015V151.338H20.0627V151.015C21.3032 151.015 22.2739 150.988 23.002 150.907C23.7301 150.853 24.2425 150.772 24.4851 150.664C24.7548 150.556 24.9166 150.449 24.9975 150.314C25.0784 150.179 25.1054 149.802 25.1054 149.182V131.686C25.1054 131.12 25.0514 130.824 24.9166 130.77C24.8627 130.77 24.62 130.743 24.2425 130.743C22.5706 130.743 21.2762 131.282 20.3863 132.36C19.3077 133.708 18.4987 136.107 17.9594 139.612H17.501V130.446H36.6468V130.473Z" fill="#9F7550"/>
<path d="M43.4962 137.536V149.801C43.4962 150.233 43.5232 150.529 43.6041 150.637C43.658 150.691 43.7389 150.772 43.9007 150.826C44.3591 150.988 45.3029 151.041 46.7052 151.041V151.338H37.2671V151.041C37.8873 151.041 38.4536 151.041 38.9659 150.988C39.4783 150.934 39.9097 150.853 40.2873 150.718C40.4221 150.61 40.476 150.287 40.476 149.774V139.666C40.476 139.261 40.4221 138.992 40.3412 138.884C40.1794 138.668 40.0446 138.533 39.9097 138.479C39.5322 138.372 38.6424 138.318 37.2671 138.318V138.021L43.5232 137.509L43.4962 137.536ZM41.7974 130.23C42.3097 130.23 42.7412 130.392 43.0917 130.743C43.4423 131.093 43.6041 131.524 43.6041 132.037C43.6041 132.549 43.4423 132.98 43.0917 133.331C42.7412 133.681 42.3097 133.843 41.7974 133.843C41.285 133.843 40.8536 133.681 40.503 133.331C40.1524 132.98 39.9906 132.549 39.9906 132.037C39.9906 131.524 40.1524 131.093 40.503 130.743C40.8536 130.392 41.285 130.23 41.7974 130.23Z" fill="#9F7550"/>
<path d="M53.6893 145.515V149.775C53.6893 150.206 53.7162 150.502 53.7971 150.61C53.8511 150.664 53.932 150.745 54.0938 150.799C54.2555 150.853 54.5522 150.907 54.9567 150.961C55.3611 151.015 55.7117 151.015 55.9544 151.015V151.311H47.595V151.015C48.8893 151.015 49.7522 150.934 50.2107 150.799L50.4264 150.691C50.4264 150.691 50.6152 150.26 50.6152 149.748V132.414C50.6152 131.983 50.5612 131.686 50.4264 131.498C50.2916 131.309 50.1837 131.201 50.0758 131.201C49.7253 131.093 48.9163 131.039 47.6219 131.039V130.743L53.6623 130.204V144.922L57.7342 140.852C58.3813 140.232 58.7049 139.666 58.7049 139.153C58.7049 138.749 58.4892 138.426 58.0308 138.183C57.5724 137.967 56.8982 137.833 55.9544 137.833V137.509H63.37V137.833C62.561 137.833 61.9139 137.94 61.4554 138.183C60.997 138.426 60.3498 138.911 59.5678 139.639L57.5724 141.634L61.7251 149.882C61.9678 150.368 62.2644 150.664 62.615 150.799C62.9655 150.934 63.5588 151.015 64.3678 151.015V151.311H56.4668V151.015C57.1679 151.015 57.7341 151.015 58.1117 150.961C58.4892 150.907 58.7049 150.772 58.7049 150.475C58.7049 150.341 58.624 150.098 58.4353 149.748L55.3881 143.709L53.6623 145.461L53.6893 145.515Z" fill="#9F7550"/>
<path d="M107.648 130.473V139.693H107.19C106.704 136.161 105.895 133.735 104.817 132.414C103.927 131.309 102.632 130.77 100.907 130.77C100.475 130.77 100.232 130.77 100.206 130.824C100.125 130.878 100.071 131.174 100.071 131.659V149.182C100.071 149.802 100.125 150.206 100.206 150.395C100.259 150.476 100.394 150.583 100.664 150.664C100.934 150.772 101.419 150.853 102.147 150.907C102.875 150.961 103.873 151.015 105.113 151.015V151.338H91.0371V151.015C92.2775 151.015 93.2483 150.988 93.9764 150.907C94.7045 150.853 95.2168 150.772 95.4595 150.664C95.7292 150.556 95.891 150.449 95.9719 150.314C96.0528 150.179 96.0797 149.802 96.0797 149.182V131.686C96.0797 131.12 96.0258 130.824 95.891 130.77C95.837 130.77 95.5943 130.743 95.2168 130.743C93.5449 130.743 92.2506 131.282 91.3607 132.36C90.2821 133.708 89.4731 136.107 88.9338 139.612H88.4753V130.446H107.621L107.648 130.473Z" fill="#9F7550"/>
<path d="M116.681 141.957V140.07C116.681 139.207 116.547 138.614 116.277 138.318C116.007 138.021 115.414 137.86 114.497 137.86C113.769 137.86 113.095 137.994 112.556 138.291C111.989 138.587 111.639 138.965 111.45 139.45C111.531 139.45 111.639 139.423 111.774 139.423C112.178 139.423 112.529 139.585 112.771 139.908C113.014 140.232 113.149 140.609 113.149 141.014C113.149 141.499 112.987 141.876 112.663 142.173C112.34 142.469 111.962 142.631 111.531 142.631C111.234 142.631 110.992 142.55 110.776 142.415C110.156 142.011 109.832 141.499 109.832 140.852C109.832 140.555 109.886 140.205 110.021 139.827C110.317 138.992 111.072 138.372 112.286 137.994C113.149 137.725 114.012 137.563 114.902 137.563C116.493 137.563 117.706 137.86 118.515 138.48C119.243 139.019 119.621 139.693 119.621 140.501V147.645C119.621 148.939 119.648 149.721 119.729 150.044C119.89 150.772 120.268 151.149 120.888 151.149C121.454 151.149 121.832 150.853 122.021 150.287C122.209 149.721 122.317 148.885 122.317 147.78C122.317 147.483 122.317 147.187 122.317 146.89C122.317 146.594 122.317 146.27 122.317 145.947V145.65H122.695V147.079C122.695 147.537 122.695 147.969 122.722 148.373C122.722 149.613 122.56 150.476 122.263 150.907C121.859 151.446 121.077 151.716 119.89 151.716C118.947 151.716 118.272 151.554 117.814 151.23C117.275 150.853 116.924 150.206 116.735 149.262C116.277 150.314 115.603 151.015 114.686 151.392C114.147 151.608 113.419 151.716 112.529 151.716C111.639 151.716 110.83 151.5 110.156 151.069C109.239 150.476 108.753 149.613 108.753 148.4C108.753 147.187 109.212 146.243 110.102 145.461C110.992 144.68 112.097 144.248 113.392 144.141C114.686 144.033 115.549 143.871 116.007 143.628C116.466 143.386 116.681 142.874 116.681 142.038V141.957ZM116.574 147.807V143.494C116.304 143.844 115.926 144.06 115.414 144.114C114.902 144.194 114.416 144.248 113.931 144.329C113.311 144.491 112.798 144.814 112.448 145.381C112.016 146.028 111.801 146.944 111.801 148.103C111.801 149.37 111.935 150.206 112.178 150.664C112.421 151.122 112.825 151.338 113.365 151.338C114.174 151.338 114.929 150.988 115.576 150.314C116.223 149.64 116.574 148.804 116.574 147.834V147.807Z" fill="#9F7550"/>
<path d="M129.302 145.515V149.775C129.302 150.206 129.329 150.502 129.41 150.61C129.464 150.664 129.545 150.745 129.706 150.799C129.868 150.853 130.165 150.907 130.569 150.961C130.974 151.015 131.324 151.015 131.567 151.015V151.311H123.208V151.015C124.502 151.015 125.365 150.934 125.823 150.799L126.039 150.691C126.039 150.691 126.228 150.26 126.228 149.748V132.414C126.228 131.983 126.174 131.686 126.039 131.498C125.904 131.309 125.796 131.201 125.688 131.201C125.338 131.093 124.529 131.039 123.234 131.039V130.743L129.275 130.204V144.922L133.347 140.852C133.994 140.232 134.317 139.666 134.317 139.153C134.317 138.749 134.102 138.426 133.643 138.183C133.185 137.967 132.511 137.833 131.567 137.833V137.509H138.983V137.833C138.174 137.833 137.526 137.94 137.068 138.183C136.61 138.426 135.962 138.911 135.18 139.639L133.185 141.634L137.338 149.882C137.58 150.368 137.877 150.664 138.228 150.799C138.578 150.934 139.171 151.015 139.98 151.015V151.311H132.079V151.015C132.78 151.015 133.347 151.015 133.724 150.961C134.102 150.934 134.317 150.772 134.317 150.475C134.317 150.341 134.237 150.098 134.048 149.748L131.001 143.709L129.275 145.461L129.302 145.515Z" fill="#9F7550"/>
<path d="M48.8622 26.0947C49.5364 24.2885 51.2622 23.0754 53.2037 23.0754H101.634C103.549 23.0754 105.248 24.2346 105.949 26.0138L115.765 51.3267H39.5859L48.8622 26.0947Z" fill="black"/>
<path d="M54.0396 1.53656C54.3632 0.620017 55.2261 0 56.2239 0H99.0996C100.07 0 100.96 0.620017 101.284 1.53656L103.711 8.46458C104.223 9.97419 103.118 11.5377 101.527 11.5377H53.7969C52.2059 11.5377 51.1003 9.97419 51.6127 8.46458L54.0396 1.53656Z" fill="black"/>
<path d="M48.2689 255.905C48.9431 257.711 50.6689 258.925 52.6105 258.925H101.041C102.956 258.925 104.655 257.765 105.356 255.986L115.171 230.673H38.9927L48.2689 255.905Z" fill="black"/>
<path d="M53.4735 280.463C53.797 281.38 54.66 282 55.6577 282H98.5335C99.5042 282 100.394 281.38 100.718 280.463L103.145 273.535C103.657 272.026 102.551 270.462 100.96 270.462H53.2308C51.6398 270.462 50.5342 272.026 51.0465 273.535L53.4735 280.463Z" fill="black"/>
</svg>
