<?xml version="1.0" encoding="UTF-8"?>
<svg id="Calque_1" data-name="Calque 1" xmlns="http://www.w3.org/2000/svg" viewBox="0 0 57.48 105.61">
  <defs>
    <style>
      .cls-1 {
        fill: #fff;
      }

      .cls-2 {
        stroke: #000;
        stroke-width: 4px;
      }

      .cls-2, .cls-3 {
        fill: #9f7550;
      }

      .cls-4 {
        stroke: #9f7550;
      }

      .cls-4, .cls-3 {
        stroke-miterlimit: 10;
      }

      .cls-3 {
        stroke: #fff;
      }
    </style>
  </defs>
  <path id="ecran" class="cls-2" d="M42.72,30.24l.21,.56,.46,.37c4.61,3.67,10.07,10.29,11.64,18.13,1.53,7.62-.52,16.81-11.68,26.12l-.44,.37-.2,.54-1.46,3.95H16.1l-1.46-3.95-.21-.56-.46-.37c-4.57-3.67-9.98-10.29-11.54-18.13-1.52-7.63,.52-16.83,11.57-26.13l.43-.36,.2-.53,1.45-3.89h25.17l1.45,3.89Z"/>
  <g id="centre">
    <circle class="cls-4" cx="28.74" cy="53.31" r="3.3"/>
    <g>
      <path class="cls-1" d="M13.59,48.9v3.42h-.17c-.18-1.31-.48-2.21-.88-2.7-.33-.41-.81-.61-1.45-.61-.16,0-.25,0-.26,.02-.03,.02-.05,.13-.05,.31v6.5c0,.23,.02,.38,.05,.45,.02,.03,.07,.07,.17,.1,.1,.04,.28,.07,.55,.09,.27,.02,.64,.04,1.1,.04v.12H7.44v-.12c.46,0,.82-.01,1.09-.04,.27-.02,.46-.05,.55-.09,.1-.04,.16-.08,.19-.13,.03-.05,.04-.19,.04-.42v-6.49c0-.21-.02-.32-.07-.34-.02,0-.11-.01-.25-.01-.62,0-1.1,.2-1.43,.6-.4,.5-.7,1.39-.9,2.69h-.17v-3.4h7.1Z"/>
      <path class="cls-1" d="M16.13,51.52v4.55c0,.16,.01,.27,.04,.31,.02,.02,.05,.05,.11,.07,.17,.06,.52,.08,1.04,.08v.11h-3.5v-.11c.23,0,.44,0,.63-.02s.35-.05,.49-.1c.05-.04,.07-.16,.07-.35v-3.75c0-.15-.02-.25-.05-.29-.06-.08-.11-.13-.16-.15-.14-.04-.47-.06-.98-.06v-.11l2.32-.19Zm-.63-2.71c.19,0,.35,.06,.48,.19,.13,.13,.19,.29,.19,.48s-.06,.35-.19,.48c-.13,.13-.29,.19-.48,.19s-.35-.06-.48-.19-.19-.29-.19-.48,.06-.35,.19-.48,.29-.19,.48-.19Z"/>
      <path class="cls-1" d="M19.91,54.48v1.58c0,.16,.01,.27,.04,.31,.02,.02,.05,.05,.11,.07,.06,.02,.17,.04,.32,.06s.28,.02,.37,.02v.11h-3.1v-.11c.48,0,.8-.03,.97-.08l.08-.04s.07-.16,.07-.35v-6.43c0-.16-.02-.27-.07-.34-.05-.07-.09-.11-.13-.11-.13-.04-.43-.06-.91-.06v-.11l2.24-.2v5.46l1.51-1.51c.24-.23,.36-.44,.36-.63,0-.15-.08-.27-.25-.36-.17-.08-.42-.13-.77-.13v-.12h2.75v.12c-.3,0-.54,.04-.71,.13-.17,.09-.41,.27-.7,.54l-.74,.74,1.54,3.06c.09,.18,.2,.29,.33,.34,.13,.05,.35,.08,.65,.08v.11h-2.93v-.11c.26,0,.47,0,.61-.02s.22-.07,.22-.18c0-.05-.03-.14-.1-.27l-1.13-2.24-.64,.65Z"/>
      <path class="cls-1" d="M39.92,48.9v3.42h-.17c-.18-1.31-.48-2.21-.88-2.7-.33-.41-.81-.61-1.45-.61-.16,0-.25,0-.26,.02-.03,.02-.05,.13-.05,.31v6.5c0,.23,.02,.38,.05,.45,.02,.03,.07,.07,.17,.1,.1,.04,.28,.07,.55,.09,.27,.02,.64,.04,1.1,.04v.12h-5.22v-.12c.46,0,.82-.01,1.09-.04,.27-.02,.46-.05,.55-.09,.1-.04,.16-.08,.19-.13,.03-.05,.04-.19,.04-.42v-6.49c0-.21-.02-.32-.07-.34-.02,0-.11-.01-.25-.01-.62,0-1.1,.2-1.43,.6-.4,.5-.7,1.39-.9,2.69h-.17v-3.4h7.1Z"/>
      <path class="cls-1" d="M43.27,53.16v-.7c0-.32-.05-.54-.15-.65-.1-.11-.32-.17-.66-.17-.27,0-.52,.05-.72,.16-.21,.11-.34,.25-.41,.43,.03,0,.07-.01,.12-.01,.15,0,.28,.06,.37,.18s.14,.26,.14,.41c0,.18-.06,.32-.18,.43-.12,.11-.26,.17-.42,.17-.11,0-.2-.03-.28-.08-.23-.15-.35-.34-.35-.58,0-.11,.02-.24,.07-.38,.11-.31,.39-.54,.84-.68,.32-.1,.64-.16,.97-.16,.59,0,1.04,.11,1.34,.34,.27,.2,.41,.45,.41,.75v2.65c0,.48,.01,.77,.04,.89,.06,.27,.2,.41,.43,.41,.21,0,.35-.11,.42-.32,.07-.21,.11-.52,.11-.93,0-.11,0-.22,0-.33s0-.23,0-.35v-.11h.14v.53c0,.17,0,.33,.01,.48,0,.46-.06,.78-.17,.94-.15,.2-.44,.3-.88,.3-.35,0-.6-.06-.77-.18-.2-.14-.33-.38-.4-.73-.17,.39-.42,.65-.76,.79-.2,.08-.47,.12-.8,.12s-.63-.08-.88-.24c-.34-.22-.52-.54-.52-.99s.17-.8,.5-1.09c.33-.29,.74-.45,1.22-.49,.48-.04,.8-.1,.97-.19,.17-.09,.25-.28,.25-.59Zm-.04,2.17v-1.6c-.1,.13-.24,.21-.43,.23-.19,.03-.37,.05-.55,.08-.23,.06-.42,.18-.55,.39-.16,.24-.24,.58-.24,1.01,0,.47,.05,.78,.14,.95,.09,.17,.24,.25,.44,.25,.3,0,.58-.13,.82-.38,.24-.25,.37-.56,.37-.92Z"/>
      <path class="cls-1" d="M47.95,54.48v1.58c0,.16,.01,.27,.04,.31,.02,.02,.05,.05,.11,.07,.06,.02,.17,.04,.32,.06s.28,.02,.37,.02v.11h-3.1v-.11c.48,0,.8-.03,.97-.08l.08-.04s.07-.16,.07-.35v-6.43c0-.16-.02-.27-.07-.34-.05-.07-.09-.11-.13-.11-.13-.04-.43-.06-.91-.06v-.11l2.24-.2v5.46l1.51-1.51c.24-.23,.36-.44,.36-.63,0-.15-.08-.27-.25-.36-.17-.08-.42-.13-.77-.13v-.12h2.75v.12c-.3,0-.54,.04-.71,.13-.17,.09-.41,.27-.7,.54l-.74,.74,1.54,3.06c.09,.18,.2,.29,.33,.34,.13,.05,.35,.08,.65,.08v.11h-2.93v-.11c.26,0,.47,0,.61-.02,.14-.01,.22-.07,.22-.18,0-.05-.03-.14-.1-.27l-1.13-2.24-.64,.65Z"/>
    </g>
  </g>
  <g id="bracelet">
    <g id="Lanniere_haut" data-name="Lanniere haut">
      <path class="cls-3" d="M18.12,10.18c.25-.67,.89-1.12,1.61-1.12h17.96c.71,0,1.34,.43,1.6,1.09l3.64,9.39H14.68l3.44-9.36Z"/>
      <path class="cls-3" d="M20.04,1.07c.12-.34,.44-.57,.81-.57h15.9c.36,0,.69,.23,.81,.57l.9,2.57c.19,.56-.22,1.14-.81,1.14H19.95c-.59,0-1-.58-.81-1.14l.9-2.57Z"/>
    </g>
    <g id="lanniere_bas" data-name="lanniere bas">
      <path class="cls-3" d="M17.9,95.43c.25,.67,.89,1.12,1.61,1.12h17.96c.71,0,1.34-.43,1.6-1.09l3.64-9.39H14.46l3.44,9.36Z"/>
      <path class="cls-3" d="M19.83,104.54c.12,.34,.44,.57,.81,.57h15.9c.36,0,.69-.23,.81-.57l.9-2.57c.19-.56-.22-1.14-.81-1.14H19.74c-.59,0-1,.58-.81,1.14l.9,2.57Z"/>
    </g>
  </g>
</svg>