<svg width="75" height="75" viewBox="0 0 75 75" fill="none" xmlns="http://www.w3.org/2000/svg">
<path fill-rule="evenodd" clip-rule="evenodd" d="M59.3594 59.6469C62.3875 56.8015 64.7999 53.3653 66.4474 49.5506C68.0948 45.736 68.9423 41.624 68.9375 37.4687C68.9375 20.6406 55.2969 7 38.4688 7C21.6406 7 8.00002 20.6406 8.00002 37.4687C7.99521 41.624 8.84273 45.736 10.4902 49.5506C12.1376 53.3653 14.55 56.8015 17.5781 59.6469C23.2248 64.9809 30.7011 67.9479 38.4688 67.9375C46.2364 67.9479 53.7127 64.9809 59.3594 59.6469ZM20.1719 55.6312C22.3659 52.8864 25.1501 50.671 28.3176 49.1497C31.4852 47.6284 34.9548 46.8403 38.4688 46.8437C41.9827 46.8403 45.4523 47.6284 48.6199 49.1497C51.7875 50.671 54.5717 52.8864 56.7656 55.6312C54.372 58.0491 51.5221 59.9675 48.3812 61.2754C45.2403 62.5832 41.871 63.2544 38.4688 63.25C35.0665 63.2544 31.6972 62.5832 28.5564 61.2754C25.4155 59.9675 22.5656 58.0491 20.1719 55.6312ZM50.1875 28.0937C50.1875 31.2018 48.9529 34.1825 46.7552 36.3802C44.5575 38.5778 41.5768 39.8125 38.4688 39.8125C35.3608 39.8125 32.3801 38.5778 30.1824 36.3802C27.9847 34.1825 26.75 31.2018 26.75 28.0937C26.75 24.9857 27.9847 22.005 30.1824 19.8073C32.3801 17.6096 35.3608 16.375 38.4688 16.375C41.5768 16.375 44.5575 17.6096 46.7552 19.8073C48.9529 22.005 50.1875 24.9857 50.1875 28.0937Z" fill="#9F7550"/>
</svg>
